<svg width="32" height="32" viewBox="0 0 32 32" fill="none" xmlns="http://www.w3.org/2000/svg">
<path fill-rule="evenodd" clip-rule="evenodd" d="M16.9961 9.04365C16.9961 8.49137 16.5484 8.04365 15.9961 8.04365C15.4439 8.04365 14.9961 8.49137 14.9961 9.04365V15.0002H9.03962C8.48734 15.0002 8.03962 15.4479 8.03962 16.0002C8.03962 16.5525 8.48734 17.0002 9.03962 17.0002H14.9961V22.9567C14.9961 23.509 15.4439 23.9567 15.9961 23.9567C16.5484 23.9567 16.9961 23.509 16.9961 22.9567V17.0002H22.9527C23.5049 17.0002 23.9527 16.5525 23.9527 16.0002C23.9527 15.4479 23.5049 15.0002 22.9527 15.0002H16.9961V9.04365ZM16 32C24.8366 32 32 24.8366 32 16C32 7.16344 24.8366 0 16 0C7.16344 0 0 7.16344 0 16C0 24.8366 7.16344 32 16 32Z" fill="#30242A"/>
</svg>
