<svg width="238" height="45" viewBox="0 0 238 45" fill="none" xmlns="http://www.w3.org/2000/svg">
<path opacity="0.3" d="M0 45L4.95833 37.9463C9.91667 30.9586 19.8333 16.7521 29.75 13.2831C39.6667 9.81403 49.5833 16.7521 59.5 21.2123C69.4167 25.6725 79.3333 27.3244 89.25 26.4985C99.1667 25.6725 109.083 22.0383 119 15.9261C128.917 9.81403 138.833 0.89364 148.75 0.0676779C158.667 -0.758284 168.583 6.17979 178.5 9.76447C188.417 13.2831 198.333 13.2831 208.25 13.2831C218.167 13.2831 228.083 13.2831 233.042 13.2831H238V45H233.042C228.083 45 218.167 45 208.25 45C198.333 45 188.417 45 178.5 45C168.583 45 158.667 45 148.75 45C138.833 45 128.917 45 119 45C109.083 45 99.1667 45 89.25 45C79.3333 45 69.4167 45 59.5 45C49.5833 45 39.6667 45 29.75 45C19.8333 45 9.91667 45 4.95833 45H0Z" fill="url(#paint0_linear)"/>
<defs>
<linearGradient id="paint0_linear" x1="119" y1="0" x2="119" y2="45" gradientUnits="userSpaceOnUse">
<stop stop-color="#92A3FF"/>
<stop offset="1" stop-color="#BF7EFF" stop-opacity="0"/>
</linearGradient>
</defs>
</svg>
