<svg width="239" height="47" viewBox="0 0 239 47" fill="none" xmlns="http://www.w3.org/2000/svg">
<path opacity="0.3" d="M0 14.6922L1.59333 12.0422C3.18667 9.39217 6.30694 4.09217 9.62639 3.21435C12.7467 2.27029 15.9333 5.91404 19.0868 12.0422C22.3067 18.1703 25.5597 27.114 28.7132 30.5922C31.8667 34.0703 35.0201 32.414 38.1736 26.17C41.4267 19.9922 44.6465 9.39217 47.8 4.09217C50.9867 -1.20783 54.1069 -1.20783 57.4264 3.21435C60.5467 7.57029 63.7333 16.514 66.8868 20.87C70.1067 25.2922 73.3597 25.2922 76.5132 28.82C79.6667 32.414 82.8201 39.3703 85.9736 38.5422C89.2267 37.714 92.4465 28.7703 95.6 25.2922C98.7867 21.814 101.907 23.4703 105.226 22.6422C108.347 21.814 111.533 18.1703 114.687 19.9922C117.907 21.814 121.16 28.7703 124.313 25.2922C127.467 21.814 130.62 7.57029 133.774 6.74217C137.027 5.91404 140.247 18.1703 143.4 25.2922C146.587 32.414 149.707 34.0703 153.026 35.0144C156.147 35.8922 159.333 35.8922 162.487 33.2422C165.707 30.5922 168.96 25.2922 172.113 25.2922C175.267 25.2922 178.42 30.5922 181.574 29.7144C184.827 28.7703 188.047 21.814 191.2 16.4644C194.387 11.214 197.507 7.57029 200.826 4.96998C203.947 2.27029 207.133 0.614042 210.287 2.31998C213.507 4.09217 216.76 9.39217 219.913 10.27C223.067 11.214 226.22 7.57029 229.374 11.1644C232.627 14.6922 235.847 25.2922 237.34 30.5922L239 35.8922V46.4922H237.407C235.813 46.4922 232.693 46.4922 229.374 46.4922C226.253 46.4922 223.067 46.4922 219.913 46.4922C216.693 46.4922 213.44 46.4922 210.287 46.4922C207.133 46.4922 203.98 46.4922 200.826 46.4922C197.573 46.4922 194.353 46.4922 191.2 46.4922C188.013 46.4922 184.893 46.4922 181.574 46.4922C178.453 46.4922 175.267 46.4922 172.113 46.4922C168.893 46.4922 165.64 46.4922 162.487 46.4922C159.333 46.4922 156.18 46.4922 153.026 46.4922C149.773 46.4922 146.553 46.4922 143.4 46.4922C140.213 46.4922 137.093 46.4922 133.774 46.4922C130.653 46.4922 127.467 46.4922 124.313 46.4922C121.093 46.4922 117.84 46.4922 114.687 46.4922C111.533 46.4922 108.38 46.4922 105.226 46.4922C101.973 46.4922 98.7535 46.4922 95.6 46.4922C92.4133 46.4922 89.2931 46.4922 85.9736 46.4922C82.8533 46.4922 79.6667 46.4922 76.5132 46.4922C73.2933 46.4922 70.0403 46.4922 66.8868 46.4922C63.7333 46.4922 60.5799 46.4922 57.4264 46.4922C54.1733 46.4922 50.9535 46.4922 47.8 46.4922C44.6133 46.4922 41.4931 46.4922 38.1736 46.4922C35.0533 46.4922 31.8667 46.4922 28.7132 46.4922C25.4933 46.4922 22.2403 46.4922 19.0868 46.4922C15.9333 46.4922 12.7799 46.4922 9.62639 46.4922C6.37333 46.4922 3.15347 46.4922 1.65972 46.4922H0V14.6922Z" fill="url(#paint0_linear)"/>
<defs>
<linearGradient id="paint0_linear" x1="119.5" y1="0" x2="119.5" y2="46.4922" gradientUnits="userSpaceOnUse">
<stop stop-color="#92A3FF"/>
<stop offset="1" stop-color="#BF7EFF" stop-opacity="0"/>
</linearGradient>
</defs>
</svg>
