<svg width="238" height="36" viewBox="0 0 238 36" fill="none" xmlns="http://www.w3.org/2000/svg">
<path opacity="0.3" d="M0 24.9252L4.41292 23.153C8.80931 21.4471 17.6847 17.8034 26.4444 12.5531C35.2537 7.20337 44.1292 0.247122 52.8889 1.95306C61.6982 3.72525 70.5736 14.3252 79.3333 14.3252C88.1426 14.3252 97.0181 3.72525 105.778 4.60306C114.587 5.54712 123.463 17.8034 132.222 22.2752C141.032 26.7471 149.907 23.1034 158.667 21.3974C167.476 19.6252 176.351 19.6252 185.111 14.3252C193.92 9.02524 202.796 -1.57475 211.556 0.197434C220.365 1.90337 229.24 16.1471 233.538 23.153L238 30.2252V35.5252H233.587C229.191 35.5252 220.315 35.5252 211.556 35.5252C202.746 35.5252 193.871 35.5252 185.111 35.5252C176.302 35.5252 167.426 35.5252 158.667 35.5252C149.857 35.5252 140.982 35.5252 132.222 35.5252C123.413 35.5252 114.537 35.5252 105.778 35.5252C96.9685 35.5252 88.0931 35.5252 79.3333 35.5252C70.524 35.5252 61.6486 35.5252 52.8889 35.5252C44.0796 35.5252 35.2042 35.5252 26.4444 35.5252C17.6351 35.5252 8.75972 35.5252 4.4625 35.5252H0V24.9252Z" fill="url(#paint0_linear)"/>
<defs>
<linearGradient id="paint0_linear" x1="119" y1="0" x2="119" y2="35.5252" gradientUnits="userSpaceOnUse">
<stop stop-color="#92A3FF"/>
<stop offset="1" stop-color="#BF7EFF" stop-opacity="0"/>
</linearGradient>
</defs>
</svg>
