<svg width="238" height="48" viewBox="0 0 238 48" fill="none" xmlns="http://www.w3.org/2000/svg">
<path opacity="0.3" d="M0 26.6026L1.02472 23.9526C2.03292 21.3026 4.13194 16.0026 6.11528 11.5804C8.13167 7.22443 10.2472 3.58068 12.2306 8.05255C14.2469 12.5244 16.1972 24.7807 18.3458 31.0247C20.3457 37.2026 22.3125 37.2026 24.4611 31.0247C26.4444 24.7807 28.4278 12.5244 30.5764 9.82474C32.5432 7.22443 34.5431 14.1807 36.6917 14.2304C38.6419 14.1807 40.6583 7.22443 42.6417 7.17474C44.7572 7.22443 46.7736 14.1807 48.7569 21.3026C50.856 28.4244 52.8889 35.3807 54.8722 32.7804C56.9547 30.0807 59.0042 17.8244 60.9875 16.8804C63.0535 16.0026 65.1194 26.6026 67.1028 28.3747C69.1687 30.0807 71.2347 23.1244 73.2181 18.6526C75.2675 14.1807 77.35 12.5244 79.3333 13.3526C81.3662 14.1807 83.4653 17.8244 85.4486 18.6526C87.465 19.4807 89.5806 17.8244 91.5639 14.2304C93.5803 10.7026 95.5306 5.40255 97.6792 3.63036C99.679 1.92443 101.646 3.58068 103.794 2.75255C105.778 1.92443 107.761 -1.71932 109.91 0.980365C111.877 3.58068 113.876 12.5244 116.025 17.7747C117.975 23.1244 119.992 24.7807 121.975 20.4247C124.091 16.0026 126.107 5.40255 128.09 6.28037C130.189 7.22443 132.222 19.4807 134.206 23.0747C136.288 26.6026 138.337 21.3026 140.321 15.1247C142.387 8.88068 144.453 1.92443 146.436 1.87474C148.502 1.92443 150.568 8.88068 152.551 16.8804C154.601 24.7807 156.683 33.7244 158.667 36.3247C160.7 39.0244 162.799 35.3807 164.782 27.4804C166.798 19.4807 168.914 7.22443 170.897 9.82474C172.914 12.5244 174.864 30.0807 177.012 32.7804C179.012 35.3807 180.979 23.1244 183.128 23.0747C185.111 23.1244 187.094 35.3807 189.243 32.7804C191.21 30.0807 193.21 12.5244 195.358 8.93037C197.309 5.40255 199.325 16.0026 201.308 23.9526C203.424 31.9026 205.44 37.2026 207.424 33.6747C209.523 30.0807 211.556 17.8244 213.539 16.8804C215.621 16.0026 217.671 26.6026 219.654 31.9026C221.72 37.2026 223.786 37.2026 225.769 31.9026C227.835 26.6026 229.901 16.0026 231.885 16.0026C233.934 16.0026 236.017 26.6026 237.008 31.9026L238 37.2026V47.8026H236.975C235.967 47.8026 233.868 47.8026 231.885 47.8026C229.868 47.8026 227.753 47.8026 225.769 47.8026C223.753 47.8026 221.803 47.8026 219.654 47.8026C217.654 47.8026 215.688 47.8026 213.539 47.8026C211.556 47.8026 209.572 47.8026 207.424 47.8026C205.457 47.8026 203.457 47.8026 201.308 47.8026C199.358 47.8026 197.342 47.8026 195.358 47.8026C193.243 47.8026 191.226 47.8026 189.243 47.8026C187.144 47.8026 185.111 47.8026 183.128 47.8026C181.045 47.8026 178.996 47.8026 177.012 47.8026C174.947 47.8026 172.881 47.8026 170.897 47.8026C168.831 47.8026 166.765 47.8026 164.782 47.8026C162.732 47.8026 160.65 47.8026 158.667 47.8026C156.634 47.8026 154.535 47.8026 152.551 47.8026C150.535 47.8026 148.419 47.8026 146.436 47.8026C144.42 47.8026 142.469 47.8026 140.321 47.8026C138.321 47.8026 136.354 47.8026 134.206 47.8026C132.222 47.8026 130.239 47.8026 128.09 47.8026C126.123 47.8026 124.124 47.8026 121.975 47.8026C120.025 47.8026 118.008 47.8026 116.025 47.8026C113.909 47.8026 111.893 47.8026 109.91 47.8026C107.811 47.8026 105.778 47.8026 103.794 47.8026C101.712 47.8026 99.6625 47.8026 97.6792 47.8026C95.6132 47.8026 93.5472 47.8026 91.5639 47.8026C89.4979 47.8026 87.4319 47.8026 85.4486 47.8026C83.3992 47.8026 81.3167 47.8026 79.3333 47.8026C77.3004 47.8026 75.2014 47.8026 73.2181 47.8026C71.2017 47.8026 69.0861 47.8026 67.1028 47.8026C65.0864 47.8026 63.1361 47.8026 60.9875 47.8026C58.9876 47.8026 57.0208 47.8026 54.8722 47.8026C52.8889 47.8026 50.9056 47.8026 48.7569 47.8026C46.7901 47.8026 44.7903 47.8026 42.6417 47.8026C40.6914 47.8026 38.675 47.8026 36.6917 47.8026C34.5761 47.8026 32.5597 47.8026 30.5764 47.8026C28.4774 47.8026 26.4444 47.8026 24.4611 47.8026C22.3786 47.8026 20.3292 47.8026 18.3458 47.8026C16.2799 47.8026 14.2139 47.8026 12.2306 47.8026C10.1646 47.8026 8.09861 47.8026 6.11528 47.8026C4.06583 47.8026 1.98333 47.8026 0.991667 47.8026H0V26.6026Z" fill="url(#paint0_linear)"/>
<defs>
<linearGradient id="paint0_linear" x1="119" y1="0" x2="119" y2="47.8026" gradientUnits="userSpaceOnUse">
<stop stop-color="#92A3FF"/>
<stop offset="1" stop-color="#BF7EFF" stop-opacity="0"/>
</linearGradient>
</defs>
</svg>
