<svg width="239" height="45" viewBox="0 0 239 45" fill="none" xmlns="http://www.w3.org/2000/svg">
<path opacity="0.3" d="M0 29.0108L7.96667 26.3608C15.9333 23.7108 31.8667 18.4108 47.8 13.1108C63.7333 7.81083 79.6667 2.51083 95.6 0.738643C111.533 -0.967295 127.467 0.688955 143.4 1.63302C159.333 2.51083 175.267 2.51083 191.2 2.51083C207.133 2.51083 223.067 2.51083 231.033 2.51083H239V44.9108H231.033C223.067 44.9108 207.133 44.9108 191.2 44.9108C175.267 44.9108 159.333 44.9108 143.4 44.9108C127.467 44.9108 111.533 44.9108 95.6 44.9108C79.6667 44.9108 63.7333 44.9108 47.8 44.9108C31.8667 44.9108 15.9333 44.9108 7.96667 44.9108H0V29.0108Z" fill="url(#paint0_linear)"/>
<defs>
<linearGradient id="paint0_linear" x1="119.5" y1="0" x2="119.5" y2="44.9108" gradientUnits="userSpaceOnUse">
<stop stop-color="#92A3FF"/>
<stop offset="1" stop-color="#BF7EFF" stop-opacity="0"/>
</linearGradient>
</defs>
</svg>
