<svg width="238" height="46" viewBox="0 0 238 46" fill="none" xmlns="http://www.w3.org/2000/svg">
<path opacity="0.3" d="M0 2.8939L2.0825 5.5439C4.18153 8.1939 8.42917 13.4939 12.5611 17.0217C16.7096 20.6158 20.825 22.272 25.1222 21.4439C29.2211 20.6158 33.3861 16.972 37.5181 14.3717C41.7492 11.672 45.9472 10.0158 50.0792 15.2661C54.2772 20.6158 58.5083 32.872 62.6403 32.0439C66.8053 31.2158 70.9042 16.972 75.2014 12.6161C79.3333 8.1939 83.4653 13.4939 87.7625 14.3717C91.8614 15.3158 96.0264 11.672 100.158 12.6161C104.389 13.4939 108.588 18.7939 112.719 19.6717C116.918 20.6158 121.149 16.972 125.281 12.6161C129.446 8.1939 133.544 2.8939 137.842 5.5439C141.957 8.1939 146.106 18.7939 150.238 17.9161C154.485 16.972 158.667 4.71577 162.799 1.12171C167.013 -2.4061 171.228 2.8939 175.36 9.96608C179.541 16.972 183.789 25.9158 187.921 24.9717C192.069 24.0939 196.185 13.4939 200.482 10.8439C204.597 8.1939 208.746 13.4939 212.878 19.6717C217.125 25.9158 221.307 32.872 225.439 31.1661C229.653 29.3939 233.868 18.7939 235.851 13.4939L238 8.1939V45.2939H235.918C233.818 45.2939 229.571 45.2939 225.439 45.2939C221.29 45.2939 217.175 45.2939 212.878 45.2939C208.779 45.2939 204.614 45.2939 200.482 45.2939C196.251 45.2939 192.053 45.2939 187.921 45.2939C183.723 45.2939 179.492 45.2939 175.36 45.2939C171.195 45.2939 167.096 45.2939 162.799 45.2939C158.667 45.2939 154.535 45.2939 150.238 45.2939C146.139 45.2939 141.974 45.2939 137.842 45.2939C133.611 45.2939 129.413 45.2939 125.281 45.2939C121.083 45.2939 116.851 45.2939 112.719 45.2939C108.554 45.2939 104.456 45.2939 100.158 45.2939C96.0429 45.2939 91.8944 45.2939 87.7625 45.2939C83.5149 45.2939 79.3333 45.2939 75.2014 45.2939C70.9868 45.2939 66.7722 45.2939 62.6403 45.2939C58.4588 45.2939 54.2111 45.2939 50.0792 45.2939C45.9307 45.2939 41.8153 45.2939 37.5181 45.2939C33.4026 45.2939 29.2542 45.2939 25.1222 45.2939C20.8746 45.2939 16.6931 45.2939 12.5611 45.2939C8.34653 45.2939 4.13194 45.2939 2.14861 45.2939H0V2.8939Z" fill="url(#paint0_linear)"/>
<defs>
<linearGradient id="paint0_linear" x1="119" y1="0" x2="119" y2="45.2939" gradientUnits="userSpaceOnUse">
<stop stop-color="#92A3FF"/>
<stop offset="1" stop-color="#BF7EFF" stop-opacity="0"/>
</linearGradient>
</defs>
</svg>
