<svg width="158" height="39" viewBox="0 0 158 39" fill="none" xmlns="http://www.w3.org/2000/svg">
<path d="M60.7089 31.3709C58.132 31.3709 56.0686 30.8865 54.5186 29.9178C52.9686 28.9296 52.1936 27.4281 52.1936 25.4131C52.1936 24.3475 52.3777 23.5337 52.7458 22.9718C53.1139 22.41 53.6564 22.129 54.3733 22.129C54.8964 22.129 55.3227 22.2647 55.652 22.5359C55.9814 22.8072 56.1461 23.1559 56.1461 23.5821C56.1461 23.9696 56.117 24.3087 56.0589 24.5993C56.0589 24.6768 56.0395 24.8125 56.0008 25.0062C55.9814 25.2 55.9717 25.4034 55.9717 25.6165C55.9717 26.4884 56.4077 27.1375 57.2795 27.5637C58.1708 27.99 59.4108 28.2031 60.9995 28.2031C62.6464 28.2031 63.9348 27.9124 64.8648 27.3312C65.7948 26.7306 66.2598 25.8975 66.2598 24.8318C66.2598 24.1731 66.0467 23.6112 65.6204 23.1462C65.1942 22.6618 64.6614 22.2647 64.022 21.9547C63.3826 21.6253 62.4817 21.2281 61.3192 20.7631C59.8273 20.1818 58.6067 19.6297 57.6573 19.1065C56.7273 18.5834 55.9233 17.8762 55.2452 16.985C54.5864 16.0744 54.257 14.9506 54.257 13.6137C54.257 12.2187 54.6252 10.9787 55.3614 9.89375C56.117 8.80875 57.1923 7.96594 58.5873 7.36532C60.0017 6.76469 61.6583 6.46438 63.557 6.46438C64.9714 6.46438 66.2695 6.67751 67.4514 7.10376C68.6332 7.51063 69.5729 8.14032 70.2704 8.99281C70.9873 9.84531 71.3457 10.8916 71.3457 12.1316C71.3457 13.3522 71.1617 14.2725 70.7936 14.8925C70.4254 15.5125 69.8829 15.8225 69.1661 15.8225C68.6623 15.8225 68.2361 15.6675 67.8873 15.3575C67.5579 15.0475 67.3932 14.6794 67.3932 14.2531C67.3932 13.885 67.4223 13.5459 67.4804 13.2359C67.5386 12.6547 67.5676 12.2866 67.5676 12.1316C67.5676 11.3178 67.1704 10.6978 66.3761 10.2716C65.5817 9.84531 64.5936 9.63219 63.4117 9.63219C61.7455 9.63219 60.4667 9.94219 59.5755 10.5622C58.7036 11.1628 58.2676 12.0153 58.2676 13.1197C58.2676 13.8559 58.4905 14.4856 58.9361 15.0087C59.4011 15.5319 59.9726 15.9678 60.6508 16.3165C61.3289 16.6653 62.2783 17.0819 63.4989 17.5662C64.9714 18.1669 66.1533 18.7093 67.0445 19.1937C67.9357 19.6781 68.6914 20.3368 69.3114 21.17C69.9507 22.0031 70.2704 23.03 70.2704 24.2506C70.2704 26.5368 69.3986 28.2999 67.6548 29.5399C65.9304 30.7606 63.6151 31.3709 60.7089 31.3709Z" fill="#1F161E"/>
<path d="M76.5584 31.2837C74.6596 31.2837 73.1774 30.7509 72.1118 29.6853C71.0656 28.6003 70.5424 27.1762 70.5424 25.4131C70.5424 23.8437 70.8524 22.4681 71.4724 21.2862C72.0924 20.1043 72.8965 19.1937 73.8846 18.5543C74.8727 17.915 75.9093 17.5953 76.9943 17.5953C78.0599 17.5953 78.8833 17.915 79.4646 18.5543C80.0652 19.1743 80.3655 19.9784 80.3655 20.9665C80.3655 21.7803 80.1815 22.4681 79.8133 23.03C79.4646 23.5918 78.9996 23.8728 78.4184 23.8728C78.0502 23.8728 77.7499 23.7856 77.5174 23.6112C77.3043 23.4368 77.1977 23.1946 77.1977 22.8847C77.1977 22.749 77.2171 22.594 77.2559 22.4197C77.2946 22.2453 77.3237 22.1193 77.343 22.0418C77.4399 21.7512 77.4884 21.48 77.4884 21.2281C77.4884 20.9762 77.4205 20.7825 77.2849 20.6468C77.1687 20.5112 76.9943 20.4434 76.7618 20.4434C76.3162 20.4434 75.8996 20.6468 75.5121 21.0537C75.1246 21.4412 74.8146 21.974 74.5821 22.6522C74.3496 23.3303 74.2334 24.0762 74.2334 24.89C74.2334 27.1375 75.2118 28.2612 77.1687 28.2612C77.963 28.2612 78.8155 27.9996 79.7262 27.4765C80.6562 26.934 81.5668 26.13 82.458 25.0643C82.6905 24.7931 82.9521 24.6575 83.2427 24.6575C83.4946 24.6575 83.6883 24.7737 83.824 25.0062C83.979 25.2387 84.0565 25.5584 84.0565 25.9653C84.0565 26.7015 83.8724 27.3021 83.5043 27.7671C82.5936 28.8909 81.499 29.7628 80.2202 30.3828C78.9608 30.9834 77.7402 31.2837 76.5584 31.2837Z" fill="#1F161E"/>
<path d="M84.3519 31.2837C83.6156 31.2837 83.0925 30.8962 82.7825 30.1212C82.4919 29.3462 82.3465 28.1062 82.3465 26.4012C82.3465 23.8825 82.705 21.4897 83.4219 19.2228C83.5962 18.6609 83.8772 18.254 84.2647 18.0022C84.6715 17.7309 85.2334 17.5953 85.9503 17.5953C86.3378 17.5953 86.609 17.6437 86.764 17.7406C86.919 17.8375 86.9965 18.0215 86.9965 18.2928C86.9965 18.6028 86.8512 19.3003 86.5606 20.3853C86.3668 21.1603 86.2118 21.8384 86.0956 22.4197C85.9793 23.0009 85.8825 23.7178 85.805 24.5703C86.4443 22.904 87.1612 21.5478 87.9556 20.5015C88.75 19.4553 89.525 18.7093 90.2806 18.2637C91.0556 17.8181 91.7628 17.5953 92.4021 17.5953C93.6615 17.5953 94.2912 18.225 94.2912 19.4843C94.2912 19.7362 94.204 20.3465 94.0296 21.3153C93.8746 22.0903 93.7971 22.5746 93.7971 22.7684C93.7971 23.4465 94.0393 23.7856 94.5237 23.7856C95.0662 23.7856 95.7637 23.3593 96.6162 22.5068C96.8681 22.255 97.1296 22.129 97.4009 22.129C97.6528 22.129 97.8465 22.2453 97.9821 22.4778C98.1371 22.6909 98.2146 22.9815 98.2146 23.3496C98.2146 24.0665 98.0209 24.6284 97.6334 25.0353C97.0909 25.5971 96.4515 26.0815 95.7153 26.4884C94.9984 26.8759 94.2331 27.0696 93.4193 27.0696C92.3925 27.0696 91.6078 26.8081 91.0653 26.285C90.5421 25.7618 90.2806 25.0546 90.2806 24.1634C90.2806 23.8728 90.3096 23.5821 90.3678 23.2915C90.4065 22.904 90.4259 22.6425 90.4259 22.5068C90.4259 22.1968 90.3193 22.0418 90.1062 22.0418C89.8156 22.0418 89.4281 22.3712 88.9437 23.03C88.4787 23.6693 88.0137 24.5218 87.5487 25.5875C87.0837 26.6531 86.7059 27.7768 86.4153 28.9587C86.2022 29.8693 85.9503 30.4893 85.6597 30.8187C85.3884 31.1287 84.9525 31.2837 84.3519 31.2837Z" fill="#1F161E"/>
<path d="M99.9025 15.6772C99.0888 15.6772 98.4785 15.4931 98.0716 15.125C97.6647 14.7375 97.4613 14.2047 97.4613 13.5266C97.4613 12.8484 97.7228 12.2866 98.246 11.8409C98.7885 11.3759 99.4569 11.1434 100.251 11.1434C100.968 11.1434 101.549 11.3178 101.995 11.6666C102.441 12.0153 102.663 12.5094 102.663 13.1487C102.663 13.9237 102.412 14.5437 101.908 15.0087C101.404 15.4544 100.736 15.6772 99.9025 15.6772ZM99.67 31.2837C98.4106 31.2837 97.4903 30.8381 96.9091 29.9468C96.3472 29.0556 96.0663 27.8737 96.0663 26.4012C96.0663 25.5293 96.1728 24.4153 96.386 23.059C96.6185 21.6834 96.9091 20.4047 97.2578 19.2228C97.4322 18.6028 97.6647 18.1765 97.9553 17.944C98.246 17.7115 98.711 17.5953 99.3503 17.5953C100.338 17.5953 100.833 17.9247 100.833 18.5834C100.833 19.0678 100.648 20.1915 100.28 21.9547C99.8153 24.0859 99.5828 25.5293 99.5828 26.285C99.5828 26.8662 99.6603 27.3118 99.8153 27.6218C99.9703 27.9318 100.232 28.0868 100.6 28.0868C100.949 28.0868 101.385 27.8446 101.908 27.3603C102.431 26.8759 103.128 26.1106 104 25.0643C104.233 24.7931 104.494 24.6575 104.785 24.6575C105.037 24.6575 105.231 24.7737 105.366 25.0062C105.521 25.2387 105.599 25.5584 105.599 25.9653C105.599 26.7403 105.415 27.3409 105.047 27.7671C103.128 30.1115 101.336 31.2837 99.67 31.2837Z" fill="#1F161E"/>
<path d="M119.29 22.2162C119.542 22.2162 119.736 22.3422 119.871 22.594C120.007 22.8459 120.075 23.1656 120.075 23.5531C120.075 24.0375 120.007 24.4153 119.871 24.6865C119.736 24.9384 119.522 25.1128 119.232 25.2096C118.069 25.6165 116.791 25.849 115.396 25.9071C115.008 27.5153 114.272 28.8134 113.187 29.8015C112.121 30.7896 110.939 31.2837 109.641 31.2837C107.684 31.2837 106.26 30.5378 105.369 29.0459C104.478 27.554 104.032 25.3937 104.032 22.565C104.032 20.0656 104.342 17.3531 104.962 14.4275C105.582 11.4825 106.483 8.98313 107.665 6.92938C108.866 4.85626 110.29 3.8197 111.937 3.8197C112.828 3.8197 113.545 4.2072 114.088 4.9822C114.63 5.73782 114.901 6.72594 114.901 7.94657C114.901 9.53531 114.601 11.1144 114.001 12.6837C113.4 14.2531 112.402 15.9 111.007 17.6244C112.305 17.7212 113.361 18.2637 114.175 19.2518C114.989 20.2206 115.473 21.4218 115.628 22.8556C116.539 22.7975 117.624 22.6037 118.883 22.2743C118.999 22.2356 119.135 22.2162 119.29 22.2162ZM111.269 6.69688C110.881 6.69688 110.455 7.27813 109.99 8.44063C109.544 9.58375 109.128 11.1434 108.74 13.1197C108.353 15.0959 108.062 17.2562 107.868 19.6006C109.147 17.2562 110.164 15.1928 110.92 13.4103C111.695 11.6084 112.082 10.01 112.082 8.615C112.082 7.995 112.005 7.52032 111.85 7.19094C111.714 6.86157 111.521 6.69688 111.269 6.69688ZM109.757 28.2031C110.358 28.2031 110.891 27.9512 111.356 27.4475C111.821 26.9437 112.131 26.2171 112.286 25.2678C111.685 24.8609 111.22 24.3281 110.891 23.6693C110.581 23.0106 110.426 22.3131 110.426 21.5768C110.426 21.3056 110.465 20.9375 110.542 20.4725H110.455C109.661 20.4725 108.992 20.8697 108.45 21.664C107.926 22.439 107.665 23.4853 107.665 24.8028C107.665 25.9071 107.868 26.75 108.275 27.3312C108.701 27.9124 109.196 28.2031 109.757 28.2031Z" fill="#1F161E"/>
<path d="M133.608 22.2162C133.86 22.2162 134.053 22.3422 134.189 22.594C134.325 22.8459 134.392 23.1656 134.392 23.5531C134.392 24.0375 134.325 24.4153 134.189 24.6865C134.053 24.9384 133.84 25.1128 133.55 25.2096C132.387 25.6165 131.108 25.849 129.713 25.9071C129.326 27.5153 128.59 28.8134 127.505 29.8015C126.439 30.7896 125.257 31.2837 123.959 31.2837C122.002 31.2837 120.578 30.5378 119.687 29.0459C118.796 27.554 118.35 25.3937 118.35 22.565C118.35 20.0656 118.66 17.3531 119.28 14.4275C119.9 11.4825 120.801 8.98313 121.983 6.92938C123.184 4.85626 124.608 3.8197 126.255 3.8197C127.146 3.8197 127.863 4.2072 128.405 4.9822C128.948 5.73782 129.219 6.72594 129.219 7.94657C129.219 9.53531 128.919 11.1144 128.318 12.6837C127.718 14.2531 126.72 15.9 125.325 17.6244C126.623 17.7212 127.679 18.2637 128.493 19.2518C129.306 20.2206 129.791 21.4218 129.946 22.8556C130.856 22.7975 131.941 22.6037 133.201 22.2743C133.317 22.2356 133.453 22.2162 133.608 22.2162ZM125.586 6.69688C125.199 6.69688 124.773 7.27813 124.308 8.44063C123.862 9.58375 123.445 11.1434 123.058 13.1197C122.67 15.0959 122.38 17.2562 122.186 19.6006C123.465 17.2562 124.482 15.1928 125.238 13.4103C126.013 11.6084 126.4 10.01 126.4 8.615C126.4 7.995 126.323 7.52032 126.168 7.19094C126.032 6.86157 125.838 6.69688 125.586 6.69688ZM124.075 28.2031C124.676 28.2031 125.209 27.9512 125.674 27.4475C126.139 26.9437 126.449 26.2171 126.604 25.2678C126.003 24.8609 125.538 24.3281 125.209 23.6693C124.899 23.0106 124.744 22.3131 124.744 21.5768C124.744 21.3056 124.782 20.9375 124.86 20.4725H124.773C123.978 20.4725 123.31 20.8697 122.767 21.664C122.244 22.439 121.983 23.4853 121.983 24.8028C121.983 25.9071 122.186 26.75 122.593 27.3312C123.019 27.9124 123.513 28.2031 124.075 28.2031Z" fill="#1F161E"/>
<path d="M147.925 22.2162C148.177 22.2162 148.371 22.3422 148.507 22.594C148.642 22.8459 148.71 23.1656 148.71 23.5531C148.71 24.0375 148.642 24.4153 148.507 24.6865C148.371 24.9384 148.158 25.1128 147.867 25.2096C146.705 25.6165 145.426 25.849 144.031 25.9071C143.644 27.5153 142.907 28.8134 141.822 29.8015C140.757 30.7896 139.575 31.2837 138.277 31.2837C136.32 31.2837 134.896 30.5378 134.005 29.0459C133.113 27.554 132.668 25.3937 132.668 22.565C132.668 20.0656 132.978 17.3531 133.598 14.4275C134.218 11.4825 135.119 8.98313 136.3 6.92938C137.502 4.85626 138.926 3.8197 140.573 3.8197C141.464 3.8197 142.181 4.2072 142.723 4.9822C143.266 5.73782 143.537 6.72594 143.537 7.94657C143.537 9.53531 143.237 11.1144 142.636 12.6837C142.035 14.2531 141.038 15.9 139.643 17.6244C140.941 17.7212 141.997 18.2637 142.81 19.2518C143.624 20.2206 144.109 21.4218 144.264 22.8556C145.174 22.7975 146.259 22.6037 147.519 22.2743C147.635 22.2356 147.77 22.2162 147.925 22.2162ZM139.904 6.69688C139.517 6.69688 139.09 7.27813 138.625 8.44063C138.18 9.58375 137.763 11.1434 137.376 13.1197C136.988 15.0959 136.698 17.2562 136.504 19.6006C137.783 17.2562 138.8 15.1928 139.555 13.4103C140.33 11.6084 140.718 10.01 140.718 8.615C140.718 7.995 140.64 7.52032 140.485 7.19094C140.35 6.86157 140.156 6.69688 139.904 6.69688ZM138.393 28.2031C138.994 28.2031 139.526 27.9512 139.991 27.4475C140.456 26.9437 140.766 26.2171 140.921 25.2678C140.321 24.8609 139.856 24.3281 139.526 23.6693C139.216 23.0106 139.061 22.3131 139.061 21.5768C139.061 21.3056 139.1 20.9375 139.178 20.4725H139.09C138.296 20.4725 137.628 20.8697 137.085 21.664C136.562 22.439 136.3 23.4853 136.3 24.8028C136.3 25.9071 136.504 26.75 136.911 27.3312C137.337 27.9124 137.831 28.2031 138.393 28.2031Z" fill="#1F161E"/>
<path d="M157.186 25.5293C157.438 25.5293 157.632 25.6456 157.768 25.8781C157.923 26.1106 158 26.4303 158 26.8371C158 27.5346 157.835 28.1353 157.506 28.639C156.964 29.4721 156.247 30.1212 155.355 30.5862C154.484 31.0512 153.437 31.2837 152.217 31.2837C150.357 31.2837 148.913 30.7315 147.886 29.6271C146.86 28.5034 146.346 26.9921 146.346 25.0934C146.346 23.7565 146.627 22.5165 147.189 21.3734C147.751 20.2109 148.526 19.2906 149.514 18.6125C150.521 17.9344 151.655 17.5953 152.914 17.5953C154.038 17.5953 154.939 17.9344 155.617 18.6125C156.295 19.2712 156.634 20.1722 156.634 21.3153C156.634 22.6522 156.15 23.805 155.181 24.7737C154.232 25.7231 152.604 26.4787 150.299 27.0406C150.764 27.9318 151.548 28.3774 152.653 28.3774C153.447 28.3774 154.096 28.1934 154.6 27.8253C155.123 27.4571 155.724 26.8371 156.402 25.9653C156.634 25.6746 156.896 25.5293 157.186 25.5293ZM152.42 20.4434C151.703 20.4434 151.093 20.86 150.589 21.6931C150.105 22.5262 149.863 23.5337 149.863 24.7156V24.7737C151.006 24.5025 151.907 24.0956 152.565 23.5531C153.224 23.0106 153.554 22.3809 153.554 21.664C153.554 21.2959 153.447 21.0053 153.234 20.7922C153.04 20.5597 152.769 20.4434 152.42 20.4434Z" fill="#1F161E"/>
<path fill-rule="evenodd" clip-rule="evenodd" d="M3 0C1.34315 0 0 1.34314 0 3V35.0579C0 36.7148 1.34314 38.0579 3 38.0579H35.0579C36.7148 38.0579 38.0579 36.7148 38.0579 35.0579V3C38.0579 1.34315 36.7148 0 35.0579 0H3ZM16.1168 15.8459C15.7121 17.7556 15.5055 19.529 15.497 21.1663C14.8069 21.332 14.2019 21.4315 13.6822 21.4646C13.5788 20.5088 13.2559 19.708 12.7134 19.0621C12.1709 18.4034 11.467 18.0417 10.6016 17.9772C11.5316 16.8276 12.1968 15.7297 12.5972 14.6834C12.9976 13.6372 13.1978 12.5845 13.1978 11.5253C13.1978 10.7115 13.017 10.0528 12.6553 9.54905C12.2936 9.03239 11.8157 8.77405 11.2216 8.77405C10.1236 8.77405 9.17427 9.46509 8.37344 10.8472C7.58552 12.2163 6.9849 13.8826 6.57157 15.8459C6.15823 17.7963 5.95157 19.6046 5.95157 21.2709C5.95157 23.1567 6.24865 24.5969 6.84282 25.5915C7.43698 26.5861 8.38635 27.0834 9.69093 27.0834C10.5563 27.0834 11.3443 26.754 12.0547 26.0953C12.778 25.4365 13.2688 24.5711 13.5272 23.499C14.2744 23.4679 14.9715 23.3617 15.6187 23.1805C15.7572 24.1611 16.0136 24.9648 16.388 25.5915C16.9822 26.5861 17.9315 27.0834 19.2361 27.0834C20.1015 27.0834 20.8895 26.754 21.5999 26.0953C22.3232 25.4365 22.814 24.5711 23.0724 23.499C23.8186 23.4679 24.5149 23.362 25.1613 23.1812C25.2968 24.1615 25.5476 24.9649 25.9138 25.5915C26.508 26.5861 27.4509 27.0834 28.7426 27.0834C29.453 27.0834 30.1182 26.8703 30.7382 26.444C31.3582 26.0048 31.8555 25.3978 32.2301 24.6228C32.6175 23.8478 32.8113 22.9759 32.8113 22.0071C32.8113 21.3096 32.6821 20.6638 32.4238 20.0696C32.1784 19.4755 31.8167 18.9911 31.3388 18.6165C30.8738 18.2419 30.3248 18.0288 29.6919 17.9772C30.6219 16.8276 31.2871 15.7297 31.6876 14.6834C32.088 13.6372 32.2882 12.5845 32.2882 11.5253C32.2882 10.7115 32.1073 10.0528 31.7457 9.54905C31.384 9.03239 30.9061 8.77405 30.3119 8.77405C29.214 8.77405 28.2646 9.46509 27.4638 10.8472C26.6759 12.2163 26.0753 13.8826 25.6619 15.8459C25.2572 17.7556 25.0507 19.529 25.0422 21.1663C24.3521 21.332 23.7471 21.4315 23.2274 21.4646C23.124 20.5088 22.8011 19.708 22.2586 19.0621C21.7161 18.4034 21.0122 18.0417 20.1467 17.9772C21.0767 16.8276 21.7419 15.7297 22.1424 14.6834C22.5428 13.6372 22.743 12.5845 22.743 11.5253C22.743 10.7115 22.5622 10.0528 22.2005 9.54905C21.8388 9.03239 21.3609 8.77405 20.7667 8.77405C19.6688 8.77405 18.7195 9.46509 17.9186 10.8472C17.1307 12.2163 16.5301 13.8826 16.1168 15.8459ZM10.7759 10.6922C10.5176 10.6922 10.2334 11.0797 9.92343 11.8547C9.62635 12.6168 9.34864 13.6565 9.09031 14.974C8.83198 16.2915 8.63823 17.7317 8.50906 19.2946C9.36156 17.7317 10.0397 16.3561 10.5434 15.1678C11.0601 13.9665 11.3184 12.9009 11.3184 11.9709C11.3184 11.5576 11.2668 11.2411 11.1634 11.0215C11.073 10.802 10.9438 10.6922 10.7759 10.6922ZM9.76843 25.0296C10.1688 25.0296 10.5241 24.8617 10.8341 24.5259C11.1441 24.1901 11.3507 23.7057 11.4541 23.0728C11.0536 22.8015 10.7436 22.4463 10.5241 22.0071C10.3174 21.568 10.2141 21.103 10.2141 20.6121C10.2141 20.4313 10.2399 20.1859 10.2916 19.8759H10.2334C9.70385 19.8759 9.25823 20.1407 8.89656 20.6703C8.54781 21.1869 8.37344 21.8844 8.37344 22.7628C8.37344 23.499 8.50906 24.0609 8.78031 24.4484C9.06448 24.8359 9.39385 25.0296 9.76843 25.0296ZM20.3211 10.6922C20.0628 10.6922 19.7786 11.0797 19.4686 11.8547C19.1715 12.6168 18.8938 13.6565 18.6355 14.974C18.3772 16.2915 18.1834 17.7317 18.0542 19.2946C18.9067 17.7317 19.5849 16.3561 20.0886 15.1678C20.6053 13.9665 20.8636 12.9009 20.8636 11.9709C20.8636 11.5576 20.812 11.2411 20.7086 11.0215C20.6182 10.802 20.489 10.6922 20.3211 10.6922ZM19.3136 25.0296C19.714 25.0296 20.0692 24.8617 20.3792 24.5259C20.6892 24.1901 20.8959 23.7057 20.9992 23.0728C20.5988 22.8015 20.2888 22.4463 20.0692 22.0071C19.8626 21.568 19.7592 21.103 19.7592 20.6121C19.7592 20.4313 19.7851 20.1859 19.8367 19.8759H19.7786C19.249 19.8759 18.8034 20.1407 18.4417 20.6703C18.093 21.1869 17.9186 21.8844 17.9186 22.7628C17.9186 23.499 18.0542 24.0609 18.3255 24.4484C18.6097 24.8359 18.939 25.0296 19.3136 25.0296ZM29.6338 15.1678C29.1301 16.3561 28.4519 17.7317 27.5994 19.2946C27.7286 17.7317 27.9224 16.2915 28.1807 14.974C28.439 13.6565 28.7167 12.6168 29.0138 11.8547C29.3238 11.0797 29.608 10.6922 29.8663 10.6922C30.0342 10.6922 30.1634 10.802 30.2538 11.0215C30.3571 11.2411 30.4088 11.5576 30.4088 11.9709C30.4088 12.9009 30.1505 13.9665 29.6338 15.1678ZM29.9244 24.274C29.6274 24.7519 29.2592 24.9909 28.8201 24.9909C28.4326 24.9909 28.1096 24.8165 27.8513 24.4678C27.593 24.1061 27.4638 23.5378 27.4638 22.7628C27.4638 21.8715 27.6188 21.1934 27.9288 20.7284C28.2388 20.2634 28.6199 20.0309 29.0719 20.0309C29.4336 20.0309 29.7436 20.2117 30.0019 20.5734C30.2603 20.9351 30.3894 21.4711 30.3894 22.1815C30.3894 23.0986 30.2344 23.7961 29.9244 24.274Z" fill="#1F161E"/>
</svg>
